<svg xmlns="http://www.w3.org/2000/svg" width="112" height="251" viewBox="0 0 112 251">
    <defs>
        <linearGradient id="gz10oxhgva" x1="-20.369%" x2="50%" y1="50%" y2="50%">
            <stop offset="0%" stop-color="#FFF"/>
            <stop offset="100%" stop-color="#ABE165"/>
        </linearGradient>
    </defs>
    <g fill="none" fill-rule="evenodd" opacity=".179">
        <g fill="url(#gz10oxhgva)" transform="translate(-996 -2530)">
            <g>
                <g>
                    <path d="M235.924 201l-13.812 37.498L235.518 276h-12.325l-14.27-37.502L222.52 201h13.404zm-53 0l-13.812 37.498L182.517 276H170.19l-14.267-37.502L169.52 201h13.404zm13.403 37l13.597 38h-13.188l-13.812-38h13.403zm-65.403-37l-13.812 37.498L130.517 276H118.19l-14.267-37.502 1.993-5.498 11.602-32h13.405zm13.404 37l13.596 38h-13.19l-13.81-38h13.404zm-63.404-37L67.11 238.498 80.515 276H68.192l-14.268-37.502L67.519 201h13.405zm12.403 37l13.597 38H93.736l-13.812-38h13.403zm103-80l13.597 37.5-14.27 37.5h-12.322l13.404-37.5-13.812-37.5h13.403zm-52 0l13.597 37.5-14.27 37.5h-12.322l13.402-37.5-13.81-37.5h13.403zm-103 0l13.597 37.5-14.27 37.5H28.333l13.404-37.5L27.924 158h13.403zm194.597-37l-13.812 37.5 13.406 37.5h-12.325l-14.27-37.5L222.52 121h13.404zm-53 0l-13.812 37.5 13.405 37.5h-12.325l-14.268-37.5L169.52 121h13.403zm-52 0l-13.812 37.5 13.405 37.5h-12.325l-14.268-37.5 1.269-3.5 12.327-34h13.404zm65.403-41l13.597 37.5-14.27 37.5h-12.322l13.404-37.5L182.924 80h13.403zm-52 0l13.597 37.5-14.27 37.5h-12.322l13.402-37.5-13.81-37.5h13.403zm-51 0l13.597 37.5-14.27 37.5H80.333l13.404-37.5L79.924 80h13.403zm-52 0l13.597 37.5-14.27 37.5H28.333l13.404-37.5L27.924 80h13.403zm194.597-37l-13.812 37.5 13.406 37.5h-12.325l-14.27-37.5L222.52 43h13.404zm-53 0l-13.812 37.5 13.405 37.5h-12.325l-14.268-37.5L169.52 43h13.403zm-52 0l-13.812 37.5 13.405 37.5h-12.325l-14.268-37.5 1.994-5.5 11.602-32h13.404zm-50 0L67.112 80.5 80.515 118H68.193l-14.27-37.5L67.52 43h13.404zm-53 0L14.11 80.5 27.517 118H15.192L.924 80.5 14.519 43h13.405zM196.327 0l13.597 37.5-14.27 37.5h-12.322l13.404-37.5L182.924 0h13.403zm-51.999 0l13.596 37.5-14.27 37.5h-12.322l13.401-37.5L130.923 0h13.405zm77.984 0l13.612 38h-12.512L208.924 0h13.388zm-53 0l13.612 38H170.41L155.924 0h13.388zm-51.998 0l13.61 38H118.41L103.924 0h13.39zM67.312 0l13.612 38H68.412L53.924 0h13.388zm-53 0l13.612 38H15.41L.924 0h13.388z" opacity=".812" transform="translate(132 2066) translate(400 464) translate(463.076 -25)"/>
                </g>
            </g>
        </g>
    </g>
</svg>
