<svg xmlns="http://www.w3.org/2000/svg" width="812" height="200" viewBox="0 0 812 200">
    <defs>
        <linearGradient id="66rbvmon8a" x1="100%" x2="0%" y1="50%" y2="50%">
            <stop offset="0%" stop-color="#5655A5"/>
            <stop offset="100%" stop-color="#36357B"/>
        </linearGradient>
    </defs>
    <g fill="none" fill-rule="evenodd" opacity=".05">
        <g>
            <g>
                <g>
                    <path fill="#494949" d="M66.885 61.442c41.533 0 67.154 24.978 67.154 67.044 0 .45-.004.905-.01 1.36l-.013.681c-.105 4.883-.55 9.624-.786 10.316H39.914c.81 14.723 14.564 25.241 30.476 25.241 14.835 0 23.195-6.836 26.97-17.09l34.253 9.465c-6.474 22.612-27.78 41.54-61.761 41.54C32.903 200 0 174.235 0 130.328 0 88.26 32.094 61.442 66.885 61.442zm677.234-3.27c41.475 0 67.058 25.568 67.058 68.626 0 .453-.003.908-.01 1.364l-.012.684-.016.683-.02.678c-.147 4.504-.535 8.594-.751 9.24h-93.18c.809 15.07 14.544 25.837 30.432 25.837 14.812 0 23.16-6.998 26.93-17.493l34.203 9.688c-6.464 23.145-27.738 42.52-61.671 42.52-36.894 0-69.75-26.373-69.75-71.316 0-43.059 32.047-70.51 66.787-70.51zm-557.22 7.214l31.015 81.241 28.588-81.241h43.15l-50.972 130.67h-41.264L142.4 65.386h44.5zm380.826-3.176l30.971 83.158 28.546-83.158h43.09l-50.9 133.753h-41.205L523.291 62.21h44.434zm-65.17-61.09v194.842H461.62V1.12h40.934zM67.424 92.993c-17.26 0-25.891 12.357-26.7 22.085h53.67c-.54-9.991-7.552-22.085-26.97-22.085zm677.233-2.525c-17.235 0-25.853 12.649-26.661 22.606h53.592c-.538-10.227-7.542-22.606-26.931-22.606z" transform="translate(-55 -4152) translate(132 4022) translate(-77 130)"/>
                    <path fill="url(#66rbvmon8a)" d="M291.467 141.432c0 20.254 8.255 38.6 21.643 51.986 13.227-14.407 32.372-23.466 53.657-23.466 21.287 0 40.422 9.05 53.658 23.458 13.388-13.377 21.634-31.734 21.634-51.978 0-40.92-33.705-74.1-75.292-74.1-41.585 0-75.3 33.18-75.3 74.1m49.959-6.476c0-13.772 11.35-24.932 25.341-24.932 13.993 0 25.333 11.16 25.333 24.932 0 13.77-11.34 24.939-25.333 24.939-13.991 0-25.341-11.169-25.341-24.939" transform="translate(-55 -4152) translate(132 4022) translate(-77 130)"/>
                </g>
            </g>
        </g>
    </g>
</svg>
