<svg xmlns="http://www.w3.org/2000/svg" xmlns:xlink="http://www.w3.org/1999/xlink" width="90" height="31" viewBox="0 0 90 31">
    <defs>
        <filter id="mq9db5y7fa">
            <feColorMatrix in="SourceGraphic" values="0 0 0 0 1.000000 0 0 0 0 1.000000 0 0 0 0 1.000000 0 0 0 1.000000 0"/>
        </filter>
        <filter id="j5uj8k408b">
            <feColorMatrix in="SourceGraphic" values="0 0 0 0 0.847000 0 0 0 0 0.847000 0 0 0 0 0.847000 0 0 0 1.000000 0"/>
        </filter>
        <path id="jadf3yl6cc" d="M0.082 0.223L13.858 0.223 13.858 29 0.082 29z"/>
    </defs>
    <g fill="none" fill-rule="evenodd">
        <g>
            <g filter="url(#mq9db5y7fa)" transform="translate(-675 -84) translate(652 66)">
                <g>
                    <path fill="#8BC442" d="M-.533.933L-.533 28.933 10.467 28.933 10.467 24.416 4.606 24.416 4.606.933zM12.467 28.933L12.467.933 24.467.933 24.467 5.369 17.766 5.369 17.766 12.573 23.634 12.573 23.634 17.009 17.766 17.009 17.766 24.497 24.467 24.497 24.467 28.933z" transform="translate(24 19)"/>
                    <g filter="url(#j5uj8k408b)" transform="translate(24 19)">
                        <g>
                            <g transform="translate(26.467 -.067)">
                                <mask id="c00ud79o1d" fill="#fff">
                                    <use xlink:href="#jadf3yl6cc"/>
                                </mask>
                                <path fill="#8BC442" d="M7.375 16.9v-4.332h6.483v15.574c-.784.272-1.743.484-2.877.633-1.135.15-2.229.225-3.282.225-2.161 0-3.768-.381-4.821-1.144-1.054-.763-1.783-2.146-2.188-4.15-.405-2.003-.608-5.034-.608-9.094S.298 7.52.73 5.517c.432-2.003 1.216-3.386 2.35-4.15C4.215.606 5.916.224 8.185.224c.864 0 1.83.076 2.897.225 1.067.15 1.978.334 2.735.552v4.128c-1.918-.299-3.35-.45-4.295-.45-1.513 0-2.552.164-3.12.491-.567.327-.959 1.145-1.174 2.453-.217 1.308-.324 3.638-.324 6.99 0 3.188.06 5.436.182 6.744.121 1.308.37 2.187.75 2.637.377.45 1.039.674 1.985.674.674 0 1.228-.054 1.66-.163V16.9H7.376z" mask="url(#c00ud79o1d)"/>
                            </g>
                            <path fill="#8BC442" d="M17.058 28.673L17.058.55 28.16.55 28.16 5.006 21.961 5.006 21.961 12.241 27.389 12.241 27.389 16.697 21.961 16.697 21.961 24.218 28.16 24.218 28.16 28.673zM41.003 28.673L35.857 12.813 35.695 12.813 35.695 28.673 31.036 28.673 31.036.55 35.654.55 40.476 15.307 40.719 15.307 40.719.55 45.338.55 45.338 28.673z" transform="translate(26.467 -.067)"/>
                            <path fill="#0D0E0E" d="M48.231 28.671L52.963 28.671 52.963 4.799 57.265 4.799 57.265 24.439 55.114 24.439 54.039 28.671 61.998 28.671 61.998 0.567 48.231 0.567z" transform="translate(26.467 -.067)"/>
                        </g>
                    </g>
                </g>
            </g>
        </g>
    </g>
</svg>
