<svg xmlns="http://www.w3.org/2000/svg" xmlns:xlink="http://www.w3.org/1999/xlink" width="177" height="40" viewBox="0 0 177 40">
    <defs>
        <path id="9gk38eig8a" d="M0.107 0.293L18.104 0.293 18.104 38 0.107 38z"/>
        <path id="dxxshpf7tc" d="M0.064 0.347L13.153 0.347 13.153 37.091 0.064 37.091z"/>
    </defs>
    <g fill="none" fill-rule="evenodd">
        <g>
            <g>
                <path fill="#8BC442" d="M0 1.133L0 37.133 14 37.133 14 31.326 6.54 31.326 6.54 1.133zM16 37.133L16 1.133 31 1.133 31 6.837 22.624 6.837 22.624 16.099 29.959 16.099 29.959 21.802 22.624 21.802 22.624 31.43 31 31.43 31 37.133z" transform="translate(-632 -81) translate(632 81)"/>
                <g>
                    <g transform="translate(-632 -81) translate(632 81) translate(34 .133)">
                        <mask id="uetqv5e6lb" fill="#fff">
                            <use xlink:href="#9gk38eig8a"/>
                        </mask>
                        <path fill="#8BC442" d="M9.635 22.146v-5.678h8.47v20.407c-1.025.358-2.277.634-3.759.83-1.482.197-2.911.295-4.287.295-2.824 0-4.923-.5-6.3-1.5-1.376-1-2.329-2.812-2.858-5.436-.529-2.625-.794-6.597-.794-11.918 0-5.32.282-9.293.847-11.917.564-2.624 1.588-4.437 3.07-5.437 1.482-.999 3.706-1.5 6.67-1.5 1.129 0 2.39.1 3.784.295 1.394.197 2.585.438 3.573.723v5.41c-2.506-.392-4.376-.59-5.61-.59-1.977 0-3.336.215-4.076.644-.741.428-1.254 1.5-1.535 3.214-.283 1.713-.424 4.766-.424 9.158 0 4.178.08 7.124.239 8.838.158 1.714.484 2.866.979 3.455.493.589 1.358.883 2.594.883.88 0 1.605-.07 2.17-.214v-9.962H9.634z" mask="url(#uetqv5e6lb)"/>
                    </g>
                    <path fill="#8BC442" d="M22.286 37.571L22.286.721 36.789.721 36.789 6.559 28.691 6.559 28.691 16.04 35.783 16.04 35.783 21.878 28.691 21.878 28.691 31.733 36.789 31.733 36.789 37.571zM53.568 37.571L46.845 16.79 46.633 16.79 46.633 37.571 40.547 37.571 40.547.721 46.581.721 52.88 20.057 53.197 20.057 53.197.721 59.232.721 59.232 37.571z" transform="translate(-632 -81) translate(632 81) translate(34 .133)"/>
                    <path fill="#0D0E0E" d="M63.011 37.568L69.194 37.568 69.194 6.288 74.815 6.288 74.815 32.023 72.004 32.023 70.599 37.568 80.997 37.568 80.997.743 63.011.743zM95.375 32.551L89.154 32.551 89.154 6.441 95.339 6.441 95.339 12.665 92.476 12.665 90.426 17.815 100.818 17.815 100.818.743 82.397.743 82.397 37.568 100.818 37.568 100.818 22.965 95.375 22.965z" transform="translate(-632 -81) translate(632 81) translate(34 .133)"/>
                    <g transform="translate(-632 -81) translate(632 81) translate(34 .133) translate(128.7 .396)">
                        <mask id="160gcmwo3d" fill="#fff">
                            <use xlink:href="#dxxshpf7tc"/>
                        </mask>
                        <path fill="#0D0E0E" d="M13.153 0.347L6.655 0.347 0.064 18.956 6.981 37.091 12.955 37.091 6.457 19.326z" mask="url(#160gcmwo3d)"/>
                    </g>
                    <path fill="#0D0E0E" d="M123.198 0.743L122.071 0.743 119.801 0.743 116.682 6.439 122.071 6.439 122.071 37.568 127.977 37.568 127.977 0.743z" transform="translate(-632 -81) translate(632 81) translate(34 .133)"/>
                    <path fill="#0D0E0E" d="M102.262 0.743L102.262 17.815 114.068 17.815 114.068 32.479 108.483 32.479 108.483 22.751 102.262 22.751 102.262 37.568 120.683 37.568 120.683 12.662 108.509 12.662 108.509 6.439 116.25 6.439 119.369 0.743z" transform="translate(-632 -81) translate(632 81) translate(34 .133)"/>
                </g>
            </g>
        </g>
    </g>
</svg>
